<?xml version="1.0" encoding="utf-8"?>
<!-- Generator: Adobe Illustrator 24.0.1, SVG Export Plug-In . SVG Version: 6.00 Build 0)  -->
<svg version="1.1" id="图层_1" xmlns="http://www.w3.org/2000/svg" xmlns:xlink="http://www.w3.org/1999/xlink" x="0px" y="0px"
	 viewBox="0 0 177 66" style="enable-background:new 0 0 177 66;" xml:space="preserve">
<style type="text/css">
	.st0{fill-rule:evenodd;clip-rule:evenodd;fill:#19CE60;}
	.st1{fill:#19CE60;}
</style>
<g>
	<path class="st0" d="M19.59,58l10.68,0c0.77-1.41,0.33-3.91-0.77-5.39c-2.96-3.96-9.21-2.5-10.18,2.3
		C19.16,55.78,19.19,57.29,19.59,58z"/>
	<path class="st1" d="M63.18,22.96c-1.09-1.72-4.23-5.44-2.52-8.21c1.48-2.4,3.6,0.31,3.9-0.99c0.24-1.05-0.4-1.97,1.04-1.96
		c1.34,0.01,1.38-1.13,1.21-1.61c-0.44-1.22-2.64-1.65-4.26-1.49c-1.71,0.16-3.14,0.89-4.2,1.69c-2.89,2.18-2.61,5.72-1.8,9.01
		c0.74,3,2.09,5.89,3.41,8.36c0.67,1.25,1.6,2.58,1.44,4.38c-0.17,2.02-1.77,2.98-3.14,2.07c-0.51-0.34-1.77-1.95-1.97-2.43
		c-0.89-2.19-0.97-2.74-2.3-5.07c-1.11-1.95-3.44-5.07-5.22-6.62c-1.94-1.69-2.77-2.4-5.01-3.77c-1.03-0.63-5.48,1.76-6.26,2.28
		c-2.49,1.64-4.49,3.51-5.16,6.67c-0.33,1.54-0.18,3.77,0.37,5.16c0.2,0.52,0.8,1.35,1.11,1.79c0.21,0.3,0.4,0.54,0.64,0.84
		c1.03,1.26,1.06,1.24,2.17,2.3l1.6,1.34c-2.28,1.1-5.3-2.09-6.48-3.76c-2.72-3.86-3.75-7.07-1.34-11.71
		c1.34-2.59,4.25-5.17,6.93-6.32c0.4-0.17,1.78-0.6,1.98-0.73c-8.92-3.24-17.79-2.31-25.78,2.66c-1.9,1.18-3.56,2.61-5.1,4.18
		c-2.14,2.18-4.36,5.28-5.62,8.27c-3.13,7.43-3.48,15.23-0.22,22.96c0.66,1.57,1.49,3.1,2.39,4.49c0.2,0.31,0.73,1.23,1.04,1.27
		c0.69,0.11,9.07,0,9.12-0.05c0.36-0.36-0.66-4.88,1.15-8.13c1.07-1.92,2.62-3.48,4.83-4.38c2.37-0.97,5.48-0.98,7.81,0.01
		c3.3,1.41,5.51,4.37,5.88,7.93c0.12,1.14-0.05,4.02,0.08,4.61c0.77,0,9.39,0.1,9.71-0.07c0.7-0.36,1.29-0.92,1.78-1.55
		c0.48-0.63,0.94-1.12,1.38-1.88c0.81-1.41,1.42-3.14,1.84-4.75c0.12-0.45,0.51-2.46,0.63-2.7c0.77-0.32,1.65-0.39,2.55-0.34
		c1.02,0.06,1.79-0.07,2.74-0.25c3.56-0.69,6.09-0.69,8.55-3.21c0.87-0.9,1.74-2.19,2.49-3.4c0.8-1.28,1.53-2.34,1.64-4.23
		C68.46,31.3,65.25,26.23,63.18,22.96z M46.43,29.57c-3.32,0.46-4.06-4.54-0.69-5.01C49.03,24.09,49.72,29.11,46.43,29.57z"/>
	<path class="st0" d="M157.01,16.05c0.44,0.31,1.19,2.9,1.46,3.61c0.39,1.03,0.75,3.1,1.91,3.2c1.28,0.1,1.41-1.32,2-3.08
		c0.22-0.66,1.02-3.3,1.34-3.73c0.24,0.34,0.14,1.03,0.14,1.45c-0.02,3.07-0.63,6.17,1.5,5.15c0.22-0.97,0.1-3.42,0.1-4.61
		c0-1.49,0.26-3.13-1.25-3.45c-1.7-0.37-2.12,0.93-2.51,2.11c-0.41,1.24-0.79,2.4-1.22,3.64c-0.87-1.26-1.07-3.74-1.96-5.03
		c-0.49-0.71-1.56-1.06-2.47-0.5c-0.89,0.56-0.77,1.44-0.76,2.7c0,0.64-0.13,4.67,0.13,5.08c0.22,0.34,0.89,0.48,1.25,0.1
		C157.2,22.12,156.56,16.8,157.01,16.05z"/>
	<path class="st0" d="M122.53,16.67c0.42,0.25,1.84,2.32,2.23,2.86l2.24,3c0.51,0.53,1.4,0.56,1.69-0.18
		c0.19-0.5,0.12-7.02,0.01-7.58c-0.7-0.46-1.11-0.48-1.71,0.12l-0.08,4.59c-1.55-0.85-3.14-5.66-5.28-4.98
		c-1.01,0.32-0.92,1.45-0.92,2.6c0,1.16,0,2.33,0,3.49c0,1.05-0.23,2.58,1.05,2.34c1.08-0.2,0.76-1.67,0.76-2.75
		C122.53,19.01,122.53,17.84,122.53,16.67z"/>
	<path class="st0" d="M141.03,22.19c0.03,0.02,0.06,0.02,0.07,0.07l0.54,0.4c0.37,0.11,0.64-0.04,0.9-0.15
		c0.18-0.62,0.34-3.09-0.13-3.57c-0.6-0.61-2.61-0.44-3.24-0.1c-0.29,1.5,0.72,1.03,1.94,1.13c-0.02,2.05-5.85,2.39-5.17-1.78
		c0.23-1.4,1.19-2.27,2.81-2.2c2.08,0.1,1.89,1.81,3.47,1.47c0.4-0.64,0.68-1.05-0.77-2c-2.69-1.75-5.81-0.77-6.86,1.5
		C132.69,21.05,137.6,24.39,141.03,22.19z"/>
	<path class="st0" d="M88.54,18.45c-0.13,0.28,0.01,0.03-0.15,0.25c-1.03,1.43-3.16,3.09-2.57,3.93c1.02,1.44,2.66-2.02,3.84-2.82
		c1.14,1.25,2.33,4.04,3.48,2.82c0.4-0.42,0.13-0.84-0.1-1.15c-0.29-0.38-0.49-0.6-0.78-0.97c-0.44-0.57-1.08-1.44-1.57-1.9
		c0.25-0.59,0.84-1.19,1.26-1.72c0.31-0.39,1.31-1.32,0.96-1.97c-0.9-1.67-2.27,1.47-3.34,2.19l-1.91-2.49
		c-0.63-0.35-1.97,0.12-1.11,1.26c0.27,0.36,0.42,0.52,0.65,0.83C87.6,17.23,88.2,17.89,88.54,18.45z"/>
	<path class="st0" d="M107.89,22.93c0.87-0.56,2.3-5.62,3.08-6.87c0.33,0.31,1.9,4.99,2.3,6.11c0.5,1.41,1.64,0.7,1.77,0.48
		c0.34-0.6-0.78-2.93-1.16-3.91c-0.8-2.04-1.2-4.26-2.92-4.21c-1.69,0.04-2.02,1.88-2.92,4.08
		C107.1,20.89,105.59,23.38,107.89,22.93z"/>
	<path class="st0" d="M171.66,14.63c-0.79,0.39-0.56,1.06-0.55,2.04c0,0.85,0,1.7,0,2.55c0,1.17-0.49,4.44,1.52,3.54
		c0.92-0.41,0.49-3.48,0.49-4.62C173.12,16.95,173.57,13.68,171.66,14.63z"/>
	<path class="st0" d="M99.53,14.64c-0.78,0.32-0.55,1.1-0.55,2.06c0,0.85,0,1.7,0,2.55c0,1.19-0.45,4.56,1.54,3.53
		c0.78-0.4,0.47-3.56,0.47-4.6c0-0.83,0.04-1.74,0-2.56C100.96,14.75,100.4,14.28,99.53,14.64z"/>
	<g>
		<path class="st1" d="M85.64,37.23c1.52-1.01,2.98-2.14,4.39-3.37c1.07-0.62,1.83-0.48,2.28,0.42h5.82
			c1.18,0.11,1.6,0.59,1.27,1.43c-0.34,0.67-0.73,1.29-1.18,1.86h3.04c1.18,0,1.77,0.56,1.77,1.69v2.45
			c0.06,1.07-0.42,1.58-1.43,1.52h-6.75l-0.08,0.08c0.67,0.79,1.18,1.49,1.52,2.11c1.8-0.45,3.46-1.01,4.98-1.69
			c0.73-0.28,1.27-0.11,1.6,0.51c0.22,0.73,0,1.27-0.67,1.6c-0.84,0.34-1.6,0.62-2.28,0.84c1.01,2.31,2.25,3.8,3.71,4.47
			c0.67,0.39,0.87,0.96,0.59,1.69c-0.45,0.62-1.04,0.73-1.77,0.34c-1.91-1.13-3.49-3.06-4.72-5.82c-0.11,0.11-0.28,0.17-0.51,0.17
			c0.17,0.56,0.25,1.07,0.25,1.52c0.28,3.38-1.27,4.89-4.64,4.56c-0.73-0.11-1.1-0.54-1.1-1.27c0.11-0.67,0.56-1.01,1.35-1.01
			c1.57,0.06,2.28-0.65,2.11-2.11c-2.25,1.63-5.06,2.92-8.44,3.88c-0.68,0.17-1.1-0.06-1.27-0.67c-0.06-0.62,0.22-1.01,0.84-1.18
			c2.75-0.84,5.54-2.25,8.35-4.22c-0.06-0.17-0.14-0.34-0.25-0.51c-2.19,1.52-4.7,2.64-7.51,3.37c-0.67,0.17-1.13-0.03-1.35-0.59
			c-0.17-0.67,0.03-1.12,0.59-1.35c2.7-0.67,5.06-1.66,7.09-2.95c-0.06-0.17-0.17-0.28-0.34-0.34c-0.96,0.62-3.01,1.38-6.16,2.28
			c-0.62,0.11-1.01-0.17-1.18-0.84c-0.06-0.67,0.22-1.1,0.84-1.27c2.36-0.45,4.05-0.98,5.06-1.6h-3.21c-1.07,0-1.6-0.48-1.6-1.43
			v-2.53c-0.79,0.39-1.35,0.28-1.69-0.34C84.68,38.3,84.91,37.74,85.64,37.23z M94.24,39.68h-5.4v1.35h4.89
			c0.06-0.11,0.11-0.22,0.17-0.34C94.08,40.3,94.19,39.96,94.24,39.68z M90.87,36.39c-0.51,0.39-1.1,0.79-1.77,1.18h6.16l0.59-0.93
			v-0.08c0.06-0.11-0.03-0.17-0.25-0.17H90.87z M96.27,41.03h4.47v-1.35h-3.97C96.61,40.18,96.44,40.63,96.27,41.03z"/>
		<path class="st1" d="M116.64,41.11v-6.83c0.06-0.51,0.45-0.76,1.18-0.76c0.73,0.06,1.12,0.34,1.18,0.84v6.75h7.85
			c0.62,0.06,0.96,0.45,1.01,1.18c-0.06,0.73-0.39,1.13-1.01,1.18h-6.58c1.86,2.48,4.19,4.87,7,7.17c0.62,0.51,0.62,1.1,0,1.77
			c-0.62,0.56-1.24,0.62-1.86,0.17c-2.42-1.74-4.56-3.91-6.41-6.5v6.92c-0.06,0.56-0.45,0.87-1.18,0.93
			c-0.73-0.06-1.13-0.37-1.18-0.93v-7c-1.58,2.31-3.6,4.47-6.07,6.5c-0.79,0.62-1.52,0.62-2.19,0c-0.45-0.62-0.28-1.24,0.51-1.86
			c3.15-2.64,5.29-5.03,6.41-7.17h-6.33c-0.68-0.06-1.04-0.45-1.1-1.18c0.06-0.73,0.42-1.12,1.1-1.18H116.64z M112.51,40.1
			c-0.9-1.35-1.83-2.59-2.78-3.71c-0.39-0.51-0.31-1.01,0.25-1.52c0.62-0.45,1.15-0.45,1.6,0c0.73,0.84,1.66,2.05,2.78,3.63
			c-0.06-0.06,0,0.03,0.17,0.25c0.45,0.73,0.37,1.32-0.25,1.77C113.6,40.86,113.01,40.72,112.51,40.1z M121.36,38.92
			c0.11-0.17,0.28-0.42,0.51-0.76c0.62-0.96,1.15-1.88,1.6-2.78c0.39-0.56,0.93-0.7,1.6-0.42c0.67,0.45,0.87,0.98,0.59,1.6
			c-0.56,1.29-1.32,2.53-2.28,3.71c-0.51,0.56-1.1,0.65-1.77,0.25C121.06,40.13,120.97,39.59,121.36,38.92z"/>
		<path class="st1" d="M140.3,33.6c0.96-0.17,1.55,0.08,1.77,0.76c0,0.06,0.06,0.17,0.17,0.34c0.17,0.34,0.22,0.62,0.17,0.84h7.68
			c0.56,0.06,0.87,0.42,0.93,1.1c-0.06,0.73-0.37,1.13-0.93,1.18h-3.96c0.39,0.45,0.22,1.18-0.51,2.19
			c-0.06,0.06-0.11,0.11-0.17,0.17h2.95c1.18,0,1.77,0.59,1.77,1.77v9.95c0.06,1.29-0.59,1.91-1.94,1.86h-1.27
			c-2.02,0.11-2.76-0.56-2.19-2.02h-7.26c-1.01,0.05-1.52-0.48-1.52-1.6V46.6c-0.51,0.17-0.87,0-1.1-0.51
			c-0.28-0.56-0.11-1.07,0.51-1.52c0.17-0.11,0.42-0.28,0.76-0.51c0.73-0.45,1.24-0.79,1.52-1.01c0.34-0.22,0.67-0.42,1.01-0.59
			h-3.96c-0.17,0.06-0.25,0.17-0.25,0.34v9.95c-0.06,0.62-0.45,0.96-1.18,1.01c-0.73-0.06-1.13-0.39-1.18-1.01V42.04
			c0-1.24,0.59-1.86,1.77-1.86h3.54c-0.23-0.22-0.51-0.56-0.84-1.01c-0.34-0.56-0.37-1.01-0.08-1.35h-4.05
			c-0.56-0.06-0.87-0.45-0.93-1.18c0.06-0.67,0.36-1.04,0.93-1.1h7.51c-0.06,0-0.11-0.14-0.17-0.42c0,0.06-0.03,0-0.08-0.17
			C139.49,34.17,139.68,33.72,140.3,33.6z M144.6,45.5c-0.11-0.06-0.31-0.2-0.59-0.42c-0.45-0.28-0.79-0.51-1.01-0.67
			c-0.9-0.67-0.9-1.32,0-1.94h-3.46c0.84,0.39,0.93,0.98,0.25,1.77c-0.67,0.51-1.27,0.93-1.77,1.27H144.6z M138.19,49.55
			c0,0.11,0.08,0.2,0.25,0.25h5.48c0.17,0,0.25-0.08,0.25-0.25v-1.69c0-0.17-0.08-0.25-0.25-0.25h-5.48
			c-0.11,0.06-0.2,0.14-0.25,0.25V49.55z M139.12,40.18h3.8c0-0.39,0.25-0.9,0.76-1.52c0.28-0.39,0.45-0.68,0.51-0.84h-5.65
			c0.11,0.11,0.22,0.28,0.34,0.51c0.17,0.23,0.28,0.39,0.34,0.51C139.54,39.57,139.51,40.02,139.12,40.18z M147.81,50.98v-8.27
			c0-0.17-0.08-0.25-0.25-0.25h-3.29c0.79,0.56,1.55,1.1,2.28,1.6c0.73,0.51,1.04,0.99,0.93,1.43c-0.11,0.67-0.51,0.98-1.18,0.93
			c0.06,0.28,0.08,0.51,0.08,0.67v3.71c0,0.28-0.03,0.48-0.08,0.59C147.47,51.52,147.98,51.38,147.81,50.98z"/>
		<path class="st1" d="M167,36.39v-1.27c0.06-0.73,0.48-1.1,1.27-1.1c0.73,0.06,1.12,0.45,1.18,1.18v1.18h1.43
			c-0.06-0.06-0.08-0.17-0.08-0.34c-0.11-0.22-0.23-0.48-0.34-0.76c-0.23-0.62,0-1.04,0.67-1.27c0.73-0.11,1.27,0.11,1.6,0.67
			c0.34,0.73,0.53,1.29,0.59,1.69h0.17c0.56,0.06,0.84,0.48,0.84,1.27c-0.06,0.67-0.39,1.04-1.01,1.1h-3.8
			c0.17,2.59,0.39,4.81,0.67,6.67c0.56-1.24,1.07-2.84,1.52-4.81c0.17-0.62,0.62-0.87,1.35-0.76c0.62,0.23,0.87,0.67,0.76,1.35
			c-0.34,2.59-1.24,5.06-2.7,7.42c0.34,1.13,0.59,1.69,0.76,1.69c0.22,0.17,0.31-0.48,0.25-1.94c0.06-0.73,0.39-1.12,1.01-1.18
			c0.62,0.06,0.93,0.48,0.93,1.26c0,2.03-0.11,3.4-0.34,4.13c-0.34,1.07-0.98,1.43-1.94,1.1c-0.96-0.28-1.8-1.29-2.53-3.04
			c-1.24,1.18-2.39,2.02-3.46,2.53c-0.9,0.39-1.58,0.31-2.02-0.25c-0.34-0.67-0.08-1.24,0.76-1.69c1.63-0.84,2.92-1.88,3.88-3.12
			c-0.62-2.59-1.04-5.71-1.27-9.36h-4.05c-0.11,0.06-0.2,0.14-0.25,0.25v1.43h1.69c1.35,0,2.02,0.62,2.02,1.86
			c0.17,5.06-0.14,7.59-0.93,7.59c-0.39,0.28-1.18,0.39-2.36,0.34c-0.67-0.06-1.07-0.45-1.18-1.18c0.06-0.67,0.42-1.04,1.1-1.1
			c0.45,0,0.76-0.03,0.93-0.08c0.11-0.06,0.2-0.31,0.25-0.76c0-0.28,0-1.63,0-4.05c0-0.34-0.23-0.48-0.67-0.42h-0.84
			c-0.06,4.22-1.13,7.51-3.21,9.87c-0.62,0.73-1.27,0.93-1.94,0.59c-0.67-0.56-0.73-1.15-0.17-1.77c0.96-0.96,1.74-2.33,2.36-4.13
			c-1.13,0.79-2.39,1.52-3.8,2.19c-0.79,0.28-1.35,0.08-1.69-0.59c-0.23-0.62,0.03-1.18,0.76-1.69c0.17-0.11,0.36-0.22,0.59-0.34
			c0.22-0.11,0.42-0.22,0.59-0.34v-5.74h-0.76c-0.62-0.06-0.96-0.45-1.01-1.18c0.06-0.73,0.39-1.13,1.01-1.18h0.76v-3.29
			c0.06-0.62,0.45-0.96,1.18-1.01c0.73,0.06,1.12,0.39,1.18,1.01v3.29h0.93c0.56,0,0.84,0.28,0.84,0.84v-1.1
			c0-1.12,0.56-1.69,1.69-1.69H167z M160.34,45.33c0.17-0.62,0.22-1.21,0.17-1.77v-3.88c0,0.68-0.31,1.01-0.93,1.01h-0.84v4.56
			c0.45-0.22,0.79-0.34,1.01-0.34C160.03,44.85,160.22,44.99,160.34,45.33z"/>
	</g>
</g>
</svg>
