<svg width="22" height="18" viewBox="0 0 22 18" fill="none" xmlns="http://www.w3.org/2000/svg">
<path fill-rule="evenodd" clip-rule="evenodd" d="M5.25858 12.7615C6.01412 12.9271 6.67147 13.0711 7.46883 13.0711C7.57793 13.0711 7.68754 13.0633 7.8008 13.0553C7.92189 13.0468 8.04715 13.0379 8.18045 13.0379C8.0493 12.5381 7.95256 12.0073 7.95256 11.4411C7.95256 8.08152 10.7324 5.3545 14.2905 5.3545C14.5163 5.3545 14.7743 5.3545 15 5.38768C14.355 2.29573 11.1215 0 7.46883 0C3.36248 0 0 2.85972 0 6.51785C0 8.64771 1.09861 10.3773 2.97334 11.7065L2.23162 14L4.85022 12.673C4.99023 12.7027 5.12592 12.7324 5.25858 12.7615ZM19.8782 18L19.3135 16.0507C20.8751 14.8748 22 13.3279 22 11.611C22 8.51937 18.9496 6 15.5 6C11.8519 6 9 8.51937 9 11.6133C9 14.7049 11.8519 17.2265 15.5 17.2265C16.2631 17.2265 17.0263 17.0253 17.7894 16.8241L19.8782 18ZM4 4C4 4.55228 4.44772 5 5 5C5.55228 5 6 4.55228 6 4C6 3.44772 5.55228 3 5 3C4.44772 3 4 3.44772 4 4ZM9 5C8.44771 5 8 4.55228 8 4C8 3.44772 8.44771 3 9 3C9.55229 3 10 3.44772 10 4C10 4.55228 9.55229 5 9 5ZM13 11C13 11.5523 13.4477 12 14 12C14.5523 12 15 11.5523 15 11C15 10.4477 14.5523 10 14 10C13.4477 10 13 10.4477 13 11ZM18 12C17.4477 12 17 11.5523 17 11C17 10.4477 17.4477 10 18 10C18.5523 10 19 10.4477 19 11C19 11.5523 18.5523 12 18 12Z" fill="#09BB07"/>
</svg>
